<svg width="62" height="62" viewBox="0 0 62 62" fill="none" xmlns="http://www.w3.org/2000/svg">
<path d="M37.0891 54.7667C50.4257 51.1932 58.3403 37.4848 54.7668 24.1481C51.1932 10.8115 37.4848 2.8969 24.1481 6.47044C10.8115 10.044 2.89693 23.7524 6.47048 37.0891C10.044 50.4257 23.7524 58.3403 37.0891 54.7667ZM16.6786 25.1219C17.1101 24.3745 18.0657 24.1185 18.813 24.55L21.2872 25.9784L22.7157 23.5043C23.1471 22.7569 24.1027 22.5009 24.8501 22.9323C25.5974 23.3638 25.8535 24.3194 25.422 25.0668L23.9935 27.5409L26.4677 28.9694C27.215 29.4009 27.4711 30.3565 27.0396 31.1038C26.6081 31.8511 25.6525 32.1072 24.9052 31.6757L22.431 30.2472L21.0026 32.7214C20.5711 33.4687 19.6155 33.7248 18.8682 33.2933C18.1208 32.8619 17.8648 31.9062 18.2962 31.1589L19.7247 28.6847L17.2505 27.2563C16.5032 26.8248 16.2471 25.8692 16.6786 25.1219ZM31.7712 21.0778C32.2027 20.3305 33.1583 20.0744 33.9056 20.5059L36.3798 21.9344L37.8082 19.4602C38.2397 18.7129 39.1953 18.4568 39.9427 18.8883C40.69 19.3198 40.946 20.2754 40.5146 21.0227L39.0861 23.4969L41.5603 24.9253C42.3076 25.3568 42.5637 26.3124 42.1322 27.0597C41.7007 27.8071 40.7451 28.0631 39.9978 27.6317L37.5236 26.2032L36.0952 28.6774C35.6637 29.4247 34.7081 29.6808 33.9607 29.2493C33.2134 28.8178 32.9574 27.8622 33.3888 27.1149L34.8173 24.6407L32.3431 23.2122C31.5958 22.7808 31.3397 21.8252 31.7712 21.0778ZM34.6627 45.7112C31.3285 46.6046 27.9014 44.6259 27.008 41.2918C26.1146 37.9576 28.0933 34.5305 31.4274 33.6371C34.7616 32.7437 38.1887 34.7224 39.0821 38.0565C39.9755 41.3907 37.9968 44.8178 34.6627 45.7112Z" fill="#AC09F9" fill-opacity="0.5"/>
</svg>
