<svg width="300" height="268" viewBox="0 0 300 268" fill="none" xmlns="http://www.w3.org/2000/svg">
<path d="M162.321 136.218L117.83 99.8112L143.97 30.6049C127.958 10.6058 102.251 0 79.3783 0C77.0089 0 74.686 0.0920914 72.4406 0.322319C44.8447 3.23853 25.5182 12.3555 13.3463 28.1952C1.26727 43.8813 -2.65067 65.3846 1.74733 92.0142C12.4636 156.754 133.347 260.633 138.488 265.007C140.811 267.002 143.722 268 146.618 268C149.53 268 152.456 266.987 154.779 264.976C156.142 263.841 165.403 255.767 178.488 243.458L140.068 194.373L162.321 136.218ZM286.688 28.2105C274.501 12.3709 255.159 3.25388 227.594 0.337667C225.349 0.0920912 223.026 0 220.672 0C196.746 0 169.677 11.4193 153.897 33.122C153.339 32.3853 144.93 31.7714 144.357 31.0653L133.409 97.248L180.145 132.611L156.436 189.876L182.174 239.989C219.603 204.334 290.653 138.198 298.256 91.9835C302.639 65.3846 298.752 43.8967 286.688 28.2105Z" fill="url(#paint0_linear_609_1341)" fill-opacity="0.7"/>
<defs>
<linearGradient id="paint0_linear_609_1341" x1="150" y1="0" x2="150" y2="268" gradientUnits="userSpaceOnUse">
<stop stop-color="#D8237E" stop-opacity="0.9"/>
<stop offset="0.759615" stop-color="#5C01B7"/>
</linearGradient>
</defs>
</svg>
